<?xml version="1.0" encoding="utf-8"?>
<!-- Generator: Adobe Illustrator 22.0.1, SVG Export Plug-In . SVG Version: 6.00 Build 0)  -->
<svg version="1.1" id="Layer_1" xmlns="http://www.w3.org/2000/svg" xmlns:xlink="http://www.w3.org/1999/xlink" x="0px" y="0px"
	 viewBox="0 0 163.7 37.3" style="enable-background:new 0 0 163.7 37.3;" xml:space="preserve">
<style type="text/css">
	.st0{fill:#3478C1;}
	.st1{fill:#7B9FBF;}
</style>
<g>
	<polygon class="st0" points="31.3,15.2 20.1,15.2 16.8,4.9 13.5,15.2 2.3,15.2 11.4,21.9 8.1,32.3 16.8,25.8 25.7,32.3 22.2,21.8 	
		"/>
	<polygon class="st0" points="63.4,15 52.2,15 48.9,4.7 45.6,15 34.4,15 43.5,21.6 40.2,32.1 48.9,25.6 57.8,32.1 54.4,21.6 	"/>
	<polygon class="st0" points="95.5,14.8 84.3,14.8 81,4.5 77.7,14.8 66.5,14.8 75.6,21.4 72.3,31.9 81,25.4 89.9,31.9 86.5,21.4 	
		"/>
	<polygon class="st1" points="127.6,14.6 116.4,14.6 113.1,4.3 109.8,14.6 98.6,14.6 107.7,21.2 104.4,31.7 113.1,25.2 122,31.7 
		118.6,21.2 	"/>
	<polyline class="st0" points="113.1,4.3 109.8,14.6 98.6,14.6 107.7,21.2 104.4,31.7 113.1,25.2 	"/>
	<polygon class="st1" points="159.7,14.4 148.5,14.4 145.2,4.1 141.9,14.4 130.7,14.4 139.8,21 136.5,31.5 145.2,25 154.1,31.5 
		150.7,21 	"/>
</g>
</svg>
